<svg id="layer_1" enable-background="new 0 0 32 32" height="512" viewBox="0 0 32 32" width="512" xmlns="http://www.w3.org/2000/svg"><path d="m20.2929688 16.0913086-5.6665039 5.6665039-2.9194336-2.9194336c-.390625-.390625-1.0234375-.390625-1.4140625 0s-.390625 1.0234375 0 1.4140625l3.6264648 3.6264648c.1953125.1953125.4511719.2929688.7070312.2929688s.5117188-.0976562.7070312-.2929688l6.3735352-6.3735352c.390625-.390625.390625-1.0234375 0-1.4140625s-1.0234374-.3906249-1.4140624.0000001z"/><path d="m25 3.9599609h-1.5v-.9599609c0-.5522461-.4477539-1-1-1s-1 .4477539-1 1v.9599609h-11v-.9599609c0-.5522461-.4477539-1-1-1s-1 .4477539-1 1v.9599609h-1.5c-2.7568359 0-5 2.2431641-5 5v16.0400391c0 2.7568359 2.2431641 5 5 5h18c2.7568359 0 5-2.2431641 5-5v-16.0400391c0-2.7568359-2.2431641-5-5-5zm-21 5c0-1.6542969 1.3457031-3 3-3h1.5v.9594727c0 .5522461.4477539 1 1 1s1-.4477539 1-1v-.9594727h11v.9594727c0 .5522461.4477539 1 1 1s1-.4477539 1-1v-.9594727h1.5c1.6542969 0 3 1.3457031 3 3v1.0097656h-24zm21 19.0400391h-18c-1.6542969 0-3-1.3457031-3-3v-13.0302734h24v13.0302734c0 1.6542969-1.3457031 3-3 3z"/></svg>